<?xml version="1.0" encoding="utf-8"?>
<!-- Generated by Mocodo 4.3.3 -->
<svg width="480" height="346" viewBox="0 0 480 346" xmlns="http://www.w3.org/2000/svg">
<rect x="0" y="0" width="480" height="346" fill="#FFFFFF" stroke="none" stroke-width="0"/>

<!-- Association LINKS -->
<g>
	<line x1="97" y1="173" x2="249" y2="173" stroke="#000000" stroke-width="1"/>
	<line x1="392" y1="173" x2="249" y2="173" stroke="#000000" stroke-width="1"/>
	<g>
		<path d="M270 144 a14 14 90 0 1 14 14 V172 h-70 V158 a14 14 90 0 1 14 -14" fill="#FFFFFF" stroke="#FFFFFF" stroke-width="0"/>
		<path d="M284 172 v16 a14 14 90 0 1 -14 14 H228 a14 14 90 0 1 -14 -14 V172 H70" fill="#FFFFFF" stroke="#FFFFFF" stroke-width="0"/>
		<rect x="214" y="144" width="70" height="58" fill="none" rx="14" stroke="#000000" stroke-width="1.5"/>
		<line x1="214" y1="172" x2="284" y2="172" stroke="#000000" stroke-width="1.5"/>
		<text x="221" y="165.3" fill="#000000" font-family="Copperplate" font-size="18">LINKS</text>
	</g>
	<text x="190" y="189" fill="#000000" font-family="Futura" font-size="11">1,N</text>
	<text x="289" y="189" fill="#000000" font-family="Futura" font-size="11">0,N</text>
</g>

<!-- Entity QUADRANT_TASK -->
<g>
	<g>
		<rect x="9" y="33" width="176" height="30" fill="#FFFFFF" stroke="none" stroke-width="0" opacity="1"/>
		<rect x="9" y="63" width="176" height="250" fill="#FFFFFF" stroke="none" stroke-width="0" opacity="1"/>
		<rect x="9" y="33" width="176" height="280" fill="none" stroke="#000000" stroke-width="1.5" opacity="1"/>
		<line x1="9" y1="63" x2="185" y2="63" stroke="#000000" stroke-width="1.5"/>
	</g>
	<text x="18" y="54.3" fill="#000000" font-family="Copperplate" font-size="18">QUADRANT_TASK</text>
	<text x="17" y="80" fill="#000000" font-family="Gill Sans" font-size="15">id</text>
	<text x="17" y="97" fill="#000000" font-family="Gill Sans" font-size="15">title</text>
	<text x="17" y="114" fill="#000000" font-family="Gill Sans" font-size="15">date</text>
	<text x="17" y="131" fill="#000000" font-family="Gill Sans" font-size="15">dateLatestModified</text>
	<text x="17" y="148.1" fill="#000000" font-family="Gill Sans" font-size="15">targetDate</text>
	<text x="17" y="165.1" fill="#000000" font-family="Gill Sans" font-size="15">isCompleted</text>
	<text x="17" y="182.1" fill="#000000" font-family="Gill Sans" font-size="15">importance</text>
	<text x="17" y="199.1" fill="#000000" font-family="Gill Sans" font-size="15">manualIsUrgent</text>
	<text x="17" y="216" fill="#000000" font-family="Gill Sans" font-size="15">urgentThresholdDays</text>
	<text x="17" y="233" fill="#000000" font-family="Gill Sans" font-size="15">completionDate</text>
	<text x="17" y="250" fill="#000000" font-family="Gill Sans" font-size="15">isTop</text>
	<text x="17" y="267" fill="#000000" font-family="Gill Sans" font-size="15">msTodoId</text>
	<text x="17" y="284" fill="#000000" font-family="Gill Sans" font-size="15">msLastModified</text>
	<text x="17" y="301.1" fill="#000000" font-family="Gill Sans" font-size="15">embeddingData</text>
</g>

<!-- Entity DAILY_TASK -->
<g>
	<g>
		<rect x="313" y="50" width="158" height="30" fill="#FFFFFF" stroke="none" stroke-width="0" opacity="1"/>
		<rect x="313" y="80" width="158" height="216" fill="#FFFFFF" stroke="none" stroke-width="0" opacity="1"/>
		<rect x="313" y="50" width="158" height="246" fill="none" stroke="#000000" stroke-width="1.5" opacity="1"/>
		<line x1="313" y1="80" x2="471" y2="80" stroke="#000000" stroke-width="1.5"/>
	</g>
	<text x="337" y="71.3" fill="#000000" font-family="Copperplate" font-size="18">DAILY_TASK</text>
	<text x="321" y="97" fill="#000000" font-family="Gill Sans" font-size="15">id</text>
	<text x="321" y="114" fill="#000000" font-family="Gill Sans" font-size="15">title</text>
	<text x="321" y="131" fill="#000000" font-family="Gill Sans" font-size="15">date</text>
	<text x="321" y="148.1" fill="#000000" font-family="Gill Sans" font-size="15">scheduledDate</text>
	<text x="321" y="165.1" fill="#000000" font-family="Gill Sans" font-size="15">startTime</text>
	<text x="321" y="182.1" fill="#000000" font-family="Gill Sans" font-size="15">duration</text>
	<text x="321" y="199.1" fill="#000000" font-family="Gill Sans" font-size="15">isCompleted</text>
	<text x="321" y="216" fill="#000000" font-family="Gill Sans" font-size="15">completedAt</text>
	<text x="321" y="233" fill="#000000" font-family="Gill Sans" font-size="15">linkedQuadrantTaskID</text>
	<text x="321" y="250" fill="#000000" font-family="Gill Sans" font-size="15">embeddingData</text>
	<text x="321" y="267" fill="#000000" font-family="Gill Sans" font-size="15">colorHex</text>
	<text x="321" y="284" fill="#000000" font-family="Gill Sans" font-size="15">notes</text>
</g>
</svg>