<?xml version="1.0" encoding="utf-8"?>
<!-- Generated by Mocodo 4.3.3 -->
<svg width="504" height="364" viewBox="0 0 504 364" xmlns="http://www.w3.org/2000/svg">
<rect x="0" y="0" width="504" height="364" fill="#FFFFFF" stroke="none" stroke-width="0"/>

<!-- Association LINKS -->
<g>
	<line x1="109" y1="182" x2="273" y2="182" stroke="#000000" stroke-width="1"/>
	<line x1="416" y1="182" x2="273" y2="182" stroke="#000000" stroke-width="1"/>
	<g>
		<path d="M294 153 a14 14 90 0 1 14 14 V181 h-70 V167 a14 14 90 0 1 14 -14" fill="#FFFFFF" stroke="#FFFFFF" stroke-width="0"/>
		<path d="M308 181 v16 a14 14 90 0 1 -14 14 H252 a14 14 90 0 1 -14 -14 V181 H70" fill="#FFFFFF" stroke="#FFFFFF" stroke-width="0"/>
		<rect x="238" y="153" width="70" height="58" fill="none" rx="14" stroke="#000000" stroke-width="1.5"/>
		<line x1="238" y1="181" x2="308" y2="181" stroke="#000000" stroke-width="1.5"/>
		<text x="245" y="174.3" fill="#000000" font-family="Copperplate" font-size="18">LINKS</text>
	</g>
	<text x="214" y="198" fill="#000000" font-family="Futura" font-size="11">1,N</text>
	<text x="313" y="198" fill="#000000" font-family="Futura" font-size="11">0,N</text>
</g>

<!-- Entity QUADRANT_TASK -->
<g>
	<g>
		<rect x="9" y="33" width="200" height="30" fill="#FFFFFF" stroke="none" stroke-width="0" opacity="1"/>
		<rect x="9" y="63" width="200" height="268" fill="#FFFFFF" stroke="none" stroke-width="0" opacity="1"/>
		<rect x="9" y="33" width="200" height="298" fill="none" stroke="#000000" stroke-width="1.5" opacity="1"/>
		<line x1="9" y1="63" x2="209" y2="63" stroke="#000000" stroke-width="1.5"/>
	</g>
	<text x="30" y="54.3" fill="#000000" font-family="Copperplate" font-size="18">QUADRANT_TASK</text>
	<text x="17" y="80" fill="#000000" font-family="Gill Sans" font-size="15">id</text>
	<text x="17" y="97" fill="#000000" font-family="Gill Sans" font-size="15">title</text>
	<text x="17" y="114" fill="#000000" font-family="Gill Sans" font-size="15">date</text>
	<text x="17" y="131" fill="#000000" font-family="Gill Sans" font-size="15">dateLatestModified</text>
	<text x="17" y="148" fill="#000000" font-family="Gill Sans" font-size="15">targetDate</text>
	<text x="17" y="165.1" fill="#000000" font-family="Gill Sans" font-size="15">isCompleted</text>
	<text x="17" y="182.1" fill="#000000" font-family="Gill Sans" font-size="15">importance</text>
	<text x="17" y="199.1" fill="#000000" font-family="Gill Sans" font-size="15">manualIsUrgent</text>
	<text x="17" y="216" fill="#000000" font-family="Gill Sans" font-size="15">urgentThresholdDays</text>
	<text x="17" y="233" fill="#000000" font-family="Gill Sans" font-size="15">originalUrgentThresholdDays</text>
	<text x="17" y="250" fill="#000000" font-family="Gill Sans" font-size="15">completionDate</text>
	<text x="17" y="267" fill="#000000" font-family="Gill Sans" font-size="15">isTop</text>
	<text x="17" y="284" fill="#000000" font-family="Gill Sans" font-size="15">msTodoId</text>
	<text x="17" y="301" fill="#000000" font-family="Gill Sans" font-size="15">msLastModified</text>
	<text x="17" y="318.1" fill="#000000" font-family="Gill Sans" font-size="15">embeddingData</text>
</g>

<!-- Entity DAILY_TASK -->
<g>
	<g>
		<rect x="337" y="59" width="158" height="30" fill="#FFFFFF" stroke="none" stroke-width="0" opacity="1"/>
		<rect x="337" y="89" width="158" height="216" fill="#FFFFFF" stroke="none" stroke-width="0" opacity="1"/>
		<rect x="337" y="59" width="158" height="246" fill="none" stroke="#000000" stroke-width="1.5" opacity="1"/>
		<line x1="337" y1="89" x2="495" y2="89" stroke="#000000" stroke-width="1.5"/>
	</g>
	<text x="361" y="80.3" fill="#000000" font-family="Copperplate" font-size="18">DAILY_TASK</text>
	<text x="345" y="106" fill="#000000" font-family="Gill Sans" font-size="15">id</text>
	<text x="345" y="123" fill="#000000" font-family="Gill Sans" font-size="15">title</text>
	<text x="345" y="140" fill="#000000" font-family="Gill Sans" font-size="15">date</text>
	<text x="345" y="157.1" fill="#000000" font-family="Gill Sans" font-size="15">scheduledDate</text>
	<text x="345" y="174.1" fill="#000000" font-family="Gill Sans" font-size="15">startTime</text>
	<text x="345" y="191.1" fill="#000000" font-family="Gill Sans" font-size="15">duration</text>
	<text x="345" y="208.1" fill="#000000" font-family="Gill Sans" font-size="15">isCompleted</text>
	<text x="345" y="225" fill="#000000" font-family="Gill Sans" font-size="15">completedAt</text>
	<text x="345" y="242" fill="#000000" font-family="Gill Sans" font-size="15">linkedQuadrantTaskID</text>
	<text x="345" y="259" fill="#000000" font-family="Gill Sans" font-size="15">embeddingData</text>
	<text x="345" y="276" fill="#000000" font-family="Gill Sans" font-size="15">colorHex</text>
	<text x="345" y="293" fill="#000000" font-family="Gill Sans" font-size="15">notes</text>
</g>
</svg>